<svg width="331" height="106" viewBox="0 0 331 106" fill="none" xmlns="http://www.w3.org/2000/svg">
<path d="M88.6898 31.5759V19.192H94.9143V31.5759H88.6898ZM63.7918 50.1517V13H70.0163V19.192H76.2408V25.3839H70.0163V31.5759H88.6898V37.7678H70.0163V50.1517H63.7918ZM76.2408 19.192V13H88.6898V19.192H76.2408Z" fill="#7092BE"/>
<path d="M101.139 37.7678V31.5759H107.363V37.7678H101.139ZM107.363 43.9598V37.7678H126.037V31.5759H107.363V25.3839H126.037V19.192H132.261V43.9598H107.363ZM107.363 19.192V13H126.037V19.192H107.363Z" fill="#7092BE"/>
<path d="M163.384 31.5759V19.192H169.608V31.5759H163.384ZM138.486 50.1517V13H144.71V19.192H150.935V25.3839H144.71V31.5759H163.384V37.7678H144.71V50.1517H138.486ZM150.935 19.192V13H163.384V19.192H150.935Z" fill="#7092BE"/>
<path d="M182.057 43.9598V37.7678H206.955V43.9598H182.057ZM175.833 37.7678V19.192H182.057V25.3839H200.731V19.192H206.955V31.5759H182.057V37.7678H175.833ZM182.057 19.192V13H200.731V19.192H182.057Z" fill="#7092BE"/>
<path d="M238.078 25.3839V19.192H244.302V25.3839H238.078ZM213.18 43.9598V13H219.404V19.192H225.629V25.3839H219.404V43.9598H213.18ZM225.629 19.192V13H238.078V19.192H225.629Z" fill="#7092BE"/>
<path d="M13 86.808V68.2322H19.2245V86.808H13ZM19.2245 68.2322V62.0402H31.6735V68.2322H19.2245ZM19.2245 93V86.808H37.898V74.4241H31.6735V68.2322H37.898V49.6563H44.1224V93H19.2245Z" fill="#7092BE"/>
<path d="M56.5714 93V86.808H81.4694V93H56.5714ZM50.3469 86.808V68.2322H56.5714V74.4241H75.2449V68.2322H81.4694V80.6161H56.5714V86.808H50.3469ZM56.5714 68.2322V62.0402H75.2449V68.2322H56.5714Z" fill="#7092BE"/>
<path d="M100.143 93V86.808H106.367V93H100.143ZM93.9184 86.808V80.6161H100.143V86.808H93.9184ZM106.367 86.808V80.6161H112.592V86.808H106.367ZM87.6939 80.6161V62.0402H93.9184V80.6161H87.6939ZM112.592 80.6161V62.0402H118.816V80.6161H112.592Z" fill="#7092BE"/>
<path d="M137.49 93V86.808H162.388V93H137.49ZM162.388 86.808V80.6161H168.612V86.808H162.388ZM143.714 80.6161V74.4241H162.388V80.6161H143.714ZM137.49 74.4241V68.2322H143.714V74.4241H137.49ZM143.714 68.2322V62.0402H168.612V68.2322H143.714Z" fill="#7092BE"/>
<path d="M187.286 93V86.808H193.51V93H187.286ZM181.061 86.808V62.0402H174.837V55.8483H181.061V49.6563H187.286V55.8483H193.51V62.0402H187.286V86.808H181.061Z" fill="#7092BE"/>
<path d="M199.735 86.808V62.0402H205.959V86.808H199.735ZM205.959 93V86.808H224.633V62.0402H230.857V93H205.959Z" fill="#7092BE"/>
<path d="M237.082 86.808V68.2322H243.306V86.808H237.082ZM243.306 68.2322V62.0402H255.755V68.2322H243.306ZM243.306 93V86.808H261.98V74.4241H255.755V68.2322H261.98V49.6563H268.204V93H243.306Z" fill="#7092BE"/>
<path d="M274.429 93V62.0402H280.653V93H274.429ZM274.429 55.8483V49.6563H280.653V55.8483H274.429Z" fill="#7092BE"/>
<path d="M293.102 93V86.808H311.776V93H293.102ZM286.878 86.808V68.2322H293.102V86.808H286.878ZM311.776 86.808V68.2322H318V86.808H311.776ZM293.102 68.2322V62.0402H311.776V68.2322H293.102Z" fill="#7092BE"/>
</svg>
