<svg width="436" height="146" viewBox="0 0 436 146" fill="none" xmlns="http://www.w3.org/2000/svg">
<g clip-path="url(#clip0_5_208)">
<path d="M191.69 60.5759V48.192H197.914V60.5759H191.69ZM166.792 79.1517V42H173.016V48.192H179.241V54.3839H173.016V60.5759H191.69V66.7678H173.016V79.1517H166.792ZM179.241 48.192V42H191.69V48.192H179.241Z" fill="#7092BE"/>
<path d="M204.139 66.7678V60.5759H210.363V66.7678H204.139ZM210.363 72.9598V66.7678H229.037V60.5759H210.363V54.3839H229.037V48.192H235.261V72.9598H210.363ZM210.363 48.192V42H229.037V48.192H210.363Z" fill="#7092BE"/>
<path d="M266.384 60.5759V48.192H272.608V60.5759H266.384ZM241.486 79.1517V42H247.71V48.192H253.935V54.3839H247.71V60.5759H266.384V66.7678H247.71V79.1517H241.486ZM253.935 48.192V42H266.384V48.192H253.935Z" fill="#7092BE"/>
<path d="M285.057 72.9598V66.7678H309.955V72.9598H285.057ZM278.833 66.7678V48.192H285.057V54.3839H303.731V48.192H309.955V60.5759H285.057V66.7678H278.833ZM285.057 48.192V42H303.731V48.192H285.057Z" fill="#7092BE"/>
<path d="M341.078 54.3839V48.192H347.302V54.3839H341.078ZM316.18 72.9598V42H322.404V48.192H328.629V54.3839H322.404V72.9598H316.18ZM328.629 48.192V42H341.078V48.192H328.629Z" fill="#7092BE"/>
<path d="M116 115.808V97.2322H122.224V115.808H116ZM122.224 97.2322V91.0402H134.673V97.2322H122.224ZM122.224 122V115.808H140.898V103.424H134.673V97.2322H140.898V78.6563H147.122V122H122.224Z" fill="#7092BE"/>
<path d="M159.571 122V115.808H184.469V122H159.571ZM153.347 115.808V97.2322H159.571V103.424H178.245V97.2322H184.469V109.616H159.571V115.808H153.347ZM159.571 97.2322V91.0402H178.245V97.2322H159.571Z" fill="#7092BE"/>
<path d="M203.143 122V115.808H209.367V122H203.143ZM196.918 115.808V109.616H203.143V115.808H196.918ZM209.367 115.808V109.616H215.592V115.808H209.367ZM190.694 109.616V91.0402H196.918V109.616H190.694ZM215.592 109.616V91.0402H221.816V109.616H215.592Z" fill="#7092BE"/>
<path d="M240.49 122V115.808H265.388V122H240.49ZM265.388 115.808V109.616H271.612V115.808H265.388ZM246.714 109.616V103.424H265.388V109.616H246.714ZM240.49 103.424V97.2322H246.714V103.424H240.49ZM246.714 97.2322V91.0402H271.612V97.2322H246.714Z" fill="#7092BE"/>
<path d="M290.286 122V115.808H296.51V122H290.286ZM284.061 115.808V91.0402H277.837V84.8483H284.061V78.6563H290.286V84.8483H296.51V91.0402H290.286V115.808H284.061Z" fill="#7092BE"/>
<path d="M302.735 115.808V91.0402H308.959V115.808H302.735ZM308.959 122V115.808H327.633V91.0402H333.857V122H308.959Z" fill="#7092BE"/>
<path d="M340.082 115.808V97.2322H346.306V115.808H340.082ZM346.306 97.2322V91.0402H358.755V97.2322H346.306ZM346.306 122V115.808H364.98V103.424H358.755V97.2322H364.98V78.6563H371.204V122H346.306Z" fill="#7092BE"/>
<path d="M377.429 122V91.0402H383.653V122H377.429ZM377.429 84.8483V78.6563H383.653V84.8483H377.429Z" fill="#7092BE"/>
<path d="M396.102 122V115.808H414.776V122H396.102ZM389.878 115.808V97.2322H396.102V115.808H389.878ZM414.776 115.808V97.2322H421V115.808H414.776ZM396.102 97.2322V91.0402H414.776V97.2322H396.102Z" fill="#7092BE"/>
<path d="M23.5 122.5H92.5V58L59.5 23.5H23.5V122.5Z" fill="white"/>
<path d="M92.2715 122.06H23.7285V23.9402H59.4718V47.095H64.8361V52.5651H70.2003V58.0352L92.2715 58.0421V122.06ZM97.6357 40.3504V34.8803H92.2715V29.4103H86.9073V23.9402H81.543V18.4701H76.1788V13H23.7285V18.4701H18.3642V23.9402H13V122.06H18.3642V127.53H23.7285V133H92.2715V127.53H97.6357V122.06H103V40.3504H97.6357Z" fill="#C3C3C3"/>
<path d="M33 73H83V70H33V73Z" fill="#7092BE"/>
<path d="M33 80H83V77H33V80Z" fill="#7092BE"/>
<path d="M33 87H83V84H33V87Z" fill="#7092BE"/>
<path d="M33 94H83V91H33V94Z" fill="#7092BE"/>
<path d="M33 101H83V98H33V101Z" fill="#7092BE"/>
<path d="M33 108H83V105H33V108Z" fill="#7092BE"/>
</g>
<defs>
<clipPath id="clip0_5_208">
<rect width="435.25" height="146" fill="white"/>
</clipPath>
</defs>
</svg>
