<svg width="116" height="146" viewBox="0 0 116 146" fill="none" xmlns="http://www.w3.org/2000/svg">
<path d="M23.5 122.5H92.5V58L59.5 23.5H23.5V122.5Z" fill="white"/>
<path d="M92.2715 122.06H23.7285V23.9402H59.4718V47.095H64.8361V52.5651H70.2003V58.0352L92.2715 58.042V122.06ZM97.6357 40.3504V34.8803H92.2715V29.4102H86.9073V23.9402H81.543V18.4701H76.1788V13H23.7285V18.4701H18.3642V23.9402H13V122.06H18.3642V127.53H23.7285V133H92.2715V127.53H97.6357V122.06H103V40.3504H97.6357Z" fill="#C3C3C3"/>
<path d="M33 73H83V70H33V73Z" fill="#7092BE"/>
<path d="M33 80H83V77H33V80Z" fill="#7092BE"/>
<path d="M33 87H83V84H33V87Z" fill="#7092BE"/>
<path d="M33 94H83V91H33V94Z" fill="#7092BE"/>
<path d="M33 101H83V98H33V101Z" fill="#7092BE"/>
<path d="M33 108H83V105H33V108Z" fill="#7092BE"/>
</svg>
